HIERARCHY
ROOT Hips
{
	OFFSET 0.000000 0.000000 0.000000
	CHANNELS 6 Xposition Yposition Zposition Xrotation Yrotation Zrotation
	JOINT LeftUpLeg_virtual
	{
		OFFSET 0.000000 0.000000 0.000000
		CHANNELS 3 Xrotation Yrotation Zrotation
		JOINT LeftUpLeg
		{
			OFFSET 10.205400 -3.823500 0.155100
			CHANNELS 3 Xrotation Yrotation Zrotation
			JOINT LeftLeg
			{
				OFFSET 0.708757 -12.982077 0.567790
				CHANNELS 3 Xrotation Yrotation Zrotation
				JOINT LeftFoot
				{
					OFFSET -0.708756 -10.717838 -2.184338
					CHANNELS 3 Xrotation Yrotation Zrotation
					JOINT LeftToeBase
					{
						OFFSET 0.108149 -7.191104 7.560241
						CHANNELS 3 Xrotation Yrotation Zrotation
						JOINT LeftToe_End
						{
							OFFSET 0.070230 0.081724 4.490308
							CHANNELS 3 Xrotation Yrotation Zrotation
							End Site
							{
								OFFSET 0 0 0
							}
						}
					}
				}
			}
		}
	}
	JOINT RightUpLeg_virtual
	{
		OFFSET 0.000000 0.000000 0.000000
		CHANNELS 3 Xrotation Yrotation Zrotation
		JOINT RightUpLeg
		{
			OFFSET -10.205400 -3.823500 0.005500
			CHANNELS 3 Xrotation Yrotation Zrotation
			JOINT RightLeg
			{
				OFFSET -0.708756 -12.982134 0.610632
				CHANNELS 3 Xrotation Yrotation Zrotation
				JOINT RightFoot
				{
					OFFSET 0.708754 -10.717769 -1.945823
					CHANNELS 3 Xrotation Yrotation Zrotation
					JOINT RightToeBase
					{
						OFFSET -0.108140 -7.191069 7.372968
						CHANNELS 3 Xrotation Yrotation Zrotation
						JOINT RightToe_End
						{
							OFFSET -0.070227 0.081735 4.479403
							CHANNELS 3 Xrotation Yrotation Zrotation
							End Site
							{
								OFFSET 0 0 0
							}
						}
					}
				}
			}
		}
	}
	JOINT Spine_virtual
	{
		OFFSET 0.000000 0.000000 0.000000
		CHANNELS 3 Xrotation Yrotation Zrotation
		JOINT Spine
		{
			OFFSET 0.000000 6.876099 0.125700
			CHANNELS 3 Xrotation Yrotation Zrotation
			JOINT Spine1
			{
				OFFSET 0.000000 5.730043 0.104720
				CHANNELS 3 Xrotation Yrotation Zrotation
				JOINT Spine1_split
				{
					OFFSET 0.000000 5.730043 0.104720
					CHANNELS 3 Xrotation Yrotation Zrotation
					JOINT Spine2
					{
						OFFSET 0.000000 5.730043 0.104720
						CHANNELS 3 Xrotation Yrotation Zrotation
						JOINT Neck_virtual
						{
							OFFSET 0.000000 0.000000 0.000000
							CHANNELS 3 Xrotation Yrotation Zrotation
							JOINT Neck
							{
								OFFSET 0.000000 10.314075 0.188496
								CHANNELS 3 Xrotation Yrotation Zrotation
								JOINT Head
								{
									OFFSET 0.000000 7.643700 -2.377400
									CHANNELS 3 Xrotation Yrotation Zrotation
									JOINT HeadTop_End
									{
										OFFSET 0.000000 43.788605 -13.619600
										CHANNELS 3 Xrotation Yrotation Zrotation
										End Site
										{
											OFFSET 0 0 0
										}
									}
								}
							}
						}
						JOINT LeftShoulder_virtual
						{
							OFFSET 0.000000 0.000000 0.000000
							CHANNELS 3 Xrotation Yrotation Zrotation
							JOINT LeftShoulder
							{
								OFFSET 2.196100 4.412489 0.087492
								CHANNELS 3 Xrotation Yrotation Zrotation
								JOINT LeftShoulder_split
								{
									OFFSET 2.196100 4.412489 0.087492
									CHANNELS 3 Xrotation Yrotation Zrotation
									JOINT LeftArm
									{
										OFFSET 8.771219 -2.981674 -0.026999
										CHANNELS 3 Xrotation Yrotation Zrotation
										JOINT LeftForeArm
										{
											OFFSET 8.512804 0.000000 -0.000000
											CHANNELS 3 Xrotation Yrotation Zrotation
											JOINT LeftHand
											{
												OFFSET 18.484802 0.000000 -0.000000
												CHANNELS 3 Xrotation Yrotation Zrotation
												End Site
												{
													OFFSET 0 0 0
												}
											}
										}
									}
								}
							}
						}
						JOINT RightShoulder_virtual
						{
							OFFSET 0.000000 0.000000 0.000000
							CHANNELS 3 Xrotation Yrotation Zrotation
							JOINT RightShoulder
							{
								OFFSET -2.196100 4.412496 0.070690
								CHANNELS 3 Xrotation Yrotation Zrotation
								JOINT RightShoulder_split
								{
									OFFSET -2.196100 4.412496 0.070690
									CHANNELS 3 Xrotation Yrotation Zrotation
									JOINT RightArm
									{
										OFFSET -8.771282 -2.981682 -0.094208
										CHANNELS 3 Xrotation Yrotation Zrotation
										JOINT RightForeArm
										{
											OFFSET -8.494598 0.000000 0.000000
											CHANNELS 3 Xrotation Yrotation Zrotation
											JOINT RightHand
											{
												OFFSET -18.483803 0.000000 0.000001
												CHANNELS 3 Xrotation Yrotation Zrotation
												End Site
												{
													OFFSET 0 0 0
												}
											}
										}
									}
								}
							}
						}
					}
				}
			}
		}
	}
}
MOTION
Frames: 9
Frame Time: 0.03333333
0.018208 35.410439 -1.759304 0.000000 0.000000 0.000000 -83.026687 -7.938480 -2.870002 10.163252 21.886518 17.935747 -2.097423 4.655414 2.382380 17.774107 30.233996 -31.961102 -4.704128 -0.414757 1.041852 0.000000 0.000000 0.000000 -85.119300 -4.524416 -0.873854 15.265251 -22.056728 -11.600589 -4.020607 -2.247767 -8.670839 23.947202 -35.677070 34.913052 -12.243568 0.917917 -1.056638 0.000000 0.000000 0.000000 -83.674387 -7.687294 -3.641642 -1.228643 -2.310047 0.288119 -0.539484 -2.675666 0.727626 2.132574 3.466136 -0.532498 0.000000 0.000000 0.000000 -2.114447 -2.947583 0.463610 -13.706443 1.964294 0.170219 9.984590 -2.469767 3.729470 0.000000 0.000000 0.000000 -1.236624 -2.971271 1.178503 0.335852 3.414895 -2.641142 -2.558402 2.667144 -5.878952 41.879407 -32.778693 -47.372123 167.677743 -87.692423 167.965403 0.000000 0.000000 0.000000 -1.381886 -2.725816 0.809659 1.024637 -3.437663 13.333309 0.441210 2.635440 -0.121553 31.847803 34.649345 39.073893 173.303018 76.356420 -172.861638 0.000000 0.000000 0.000000 
0.035295 35.446354 -1.768583 0.000000 0.000000 0.000000 -83.026325 -7.962306 -2.880160 10.049998 21.591355 17.985435 -1.841598 4.556535 2.386775 18.017399 30.124317 -32.029714 -4.534526 -0.393195 0.960821 0.000000 0.000000 0.000000 -85.127865 -4.445155 -0.818950 15.372628 -21.964628 -11.372268 -3.934500 -2.272110 -8.738991 23.573063 -35.836278 34.809345 -12.338541 0.981808 -1.157759 0.000000 0.000000 0.000000 -83.588347 -7.502522 -3.462592 -1.188510 -2.317761 0.430904 -0.412310 -2.640179 0.764750 1.959358 3.297735 -0.747694 0.000000 0.000000 0.000000 -2.083659 -2.930281 0.497171 -13.922408 2.239394 0.076573 10.161666 -2.141401 3.210446 0.000000 0.000000 0.000000 -1.015948 -2.939581 1.291712 0.169855 3.358638 -3.264152 -2.389485 3.361799 -5.116224 41.902886 -32.679867 -46.964418 164.680683 -88.277845 164.727975 0.000000 0.000000 0.000000 -1.114271 -2.652066 0.773971 1.090841 -3.260416 13.116271 0.635221 2.320712 0.096968 29.767720 34.908318 39.256775 173.667463 75.242026 -173.287882 0.000000 0.000000 0.000000 
0.034143 35.504627 -1.768478 0.000000 0.000000 0.000000 -83.133914 -7.935508 -2.782016 9.815571 21.333831 18.091750 -1.534343 4.513707 2.302039 18.247177 29.942395 -32.163197 -4.282777 -0.362592 0.826263 0.000000 0.000000 0.000000 -85.185662 -4.245357 -0.635361 15.430135 -21.534494 -11.116053 -3.722654 -2.353976 -8.915045 23.076393 -36.109318 34.411620 -12.322436 1.061095 -1.234335 0.000000 0.000000 0.000000 -83.614657 -7.378383 -3.315589 -0.998104 -2.339388 0.639813 -0.015997 -2.611623 0.783475 1.756282 2.773463 -0.903172 0.000000 0.000000 0.000000 -1.773707 -2.922325 0.505658 -13.964206 2.507012 -0.341549 10.183756 -1.394166 2.118694 0.000000 0.000000 0.000000 -0.445706 -2.960376 1.340892 0.019517 3.390588 -4.220067 -2.318091 3.871240 -4.259058 40.469895 -32.172797 -47.281377 157.713316 -89.532701 157.617858 0.000000 0.000000 0.000000 -0.647094 -2.623681 0.697983 1.057765 -2.718311 12.796485 0.750622 2.061258 0.870409 25.884559 35.609922 39.514635 175.058090 74.143725 -174.940980 0.000000 0.000000 0.000000 
0.018827 35.566452 -1.745468 0.000000 0.000000 0.000000 -83.326887 -7.869922 -2.593818 9.554365 21.201105 18.200970 -1.211248 4.504968 2.171958 18.305687 29.753622 -32.259021 -4.162624 -0.335468 0.709017 0.000000 0.000000 0.000000 -85.302451 -4.022760 -0.343599 15.311464 -20.923593 -10.948983 -3.405329 -2.421442 -9.129558 22.654836 -36.332478 33.916455 -12.172698 1.137319 -1.260070 0.000000 0.000000 0.000000 -83.801674 -7.374721 -3.228907 -0.666402 -2.322238 0.824121 0.652904 -2.479163 0.767550 1.504144 2.027707 -0.833497 0.000000 0.000000 0.000000 -1.177483 -2.807308 0.455518 -13.758876 2.626956 -0.966064 10.032227 -0.364747 0.623655 0.000000 0.000000 0.000000 0.445670 -2.901300 1.324929 -0.087013 3.494233 -5.289052 -2.197829 3.845534 -3.331386 38.031412 -31.492964 -47.926686 -19.007518 -89.174335 -19.163071 0.000000 0.000000 0.000000 -0.004093 -2.526664 0.578466 0.914859 -1.842767 12.427317 0.712467 2.028181 1.768789 20.613675 36.587165 40.019110 176.755433 73.192983 -177.011415 0.000000 0.000000 0.000000 
-0.004862 35.621071 -1.704830 0.000000 0.000000 0.000000 -83.560268 -7.808943 -2.336336 9.333505 21.168276 18.285987 -0.953072 4.504412 2.059194 18.010720 29.654335 -32.188783 -4.177050 -0.326704 0.648177 0.000000 0.000000 0.000000 -85.497863 -3.869141 -0.016593 15.011356 -20.340793 -10.882902 -3.109633 -2.426682 -9.341353 22.417096 -36.392300 33.466284 -11.952611 1.190013 -1.224277 0.000000 0.000000 0.000000 -84.170313 -7.512888 -3.205740 -0.203286 -2.185432 0.887366 1.620747 -2.119589 0.721801 1.312853 1.376902 -0.575296 0.000000 0.000000 0.000000 -0.303720 -2.466022 0.347392 -13.238326 2.535565 -1.592805 9.760138 0.640741 -1.054619 0.000000 0.000000 0.000000 1.587510 -2.618212 1.240827 -0.133465 3.583602 -6.256411 -1.800567 3.266185 -2.581873 35.283907 -30.899858 -48.415543 -25.093446 -88.288787 -25.264527 0.000000 0.000000 0.000000 0.821247 -2.244495 0.410639 0.684257 -0.796964 12.107924 0.397967 2.018511 2.365112 14.307938 37.415715 41.027017 178.363888 72.042240 -179.026976 0.000000 0.000000 0.000000 
-0.042583 35.662975 -1.639408 0.000000 0.000000 0.000000 -83.800397 -7.780298 -2.038184 9.163520 21.141275 18.339232 -0.793971 4.475409 2.016720 17.208431 29.729266 -31.869669 -4.155697 -0.342134 0.637509 0.000000 0.000000 0.000000 -85.659595 -3.817107 0.320630 14.669759 -19.941364 -10.853087 -2.973335 -2.355653 -9.528373 22.213324 -36.304464 33.030054 -11.693082 1.220997 -1.142446 0.000000 0.000000 0.000000 -84.603982 -7.707109 -3.220083 0.349040 -1.848323 0.793298 2.891086 -1.459483 0.652098 1.071858 0.950428 -0.339781 0.000000 0.000000 0.000000 0.864768 -1.832178 0.198442 -12.311219 2.151094 -2.129633 9.458574 1.340689 -2.702865 0.000000 0.000000 0.000000 2.931489 -2.028946 1.108288 -0.117756 3.599858 -6.904114 -1.162885 2.385002 -2.006262 32.756003 -30.799037 -48.249672 -32.898286 -88.082242 -33.059089 0.000000 0.000000 0.000000 1.873576 -1.676096 0.218340 0.396930 0.314014 11.899077 0.031331 1.989109 2.696613 7.352124 37.696767 42.765990 179.381777 70.254916 179.583814 0.000000 0.000000 0.000000 
-0.088188 35.700623 -1.603912 0.000000 0.000000 0.000000 -83.976582 -7.750170 -1.726493 9.082984 21.014061 18.351345 -0.783920 4.350062 2.066798 15.970736 29.948375 -31.420520 -4.016528 -0.381121 0.655003 0.000000 0.000000 0.000000 -85.773277 -3.831035 0.643106 14.456983 -19.788279 -10.789955 -3.035480 -2.236072 -9.691684 21.872969 -36.157867 32.549622 -11.378167 1.235692 -1.033795 0.000000 0.000000 0.000000 -85.021737 -7.890259 -3.260085 0.961184 -1.313997 0.535981 4.457731 -0.518549 0.561668 0.973534 0.733359 -0.065839 0.000000 0.000000 0.000000 2.336001 -0.920563 0.022946 -11.020062 1.552176 -2.505880 9.269511 1.564031 -4.170785 0.000000 0.000000 0.000000 4.437793 -1.155078 0.931081 -0.044577 3.466154 -7.119436 -0.522966 1.509698 -1.921020 30.813698 -31.476647 -47.058047 -43.723377 -88.357895 -43.836830 0.000000 0.000000 0.000000 3.202243 -0.822676 0.033951 0.099205 1.357394 11.854090 -0.243542 2.038493 2.856068 0.011781 37.042944 45.220999 179.749761 67.578185 178.968209 0.000000 0.000000 0.000000 
-0.134227 35.743992 -1.595919 0.000000 0.000000 0.000000 -84.076043 -7.705127 -1.448062 9.099228 20.699430 18.370900 -0.911440 4.070089 2.180618 14.556639 30.226517 -31.103961 -3.879811 -0.432646 0.701031 0.000000 0.000000 0.000000 -85.847323 -3.850197 0.900961 14.449342 -19.887525 -10.669855 -3.222632 -2.085726 -9.804329 21.340639 -35.975645 32.046223 -10.969846 1.233846 -0.935937 0.000000 0.000000 0.000000 -85.300887 -8.061642 -3.347271 1.564687 -0.626440 0.183527 6.316903 0.592846 0.458103 1.017173 0.656361 0.152215 0.000000 0.000000 0.000000 4.114883 0.186530 -0.150420 -9.461800 0.859805 -2.741734 9.334399 1.364469 -5.401732 0.000000 0.000000 0.000000 6.135172 -0.082253 0.725870 0.082916 3.215579 -6.911539 0.088865 0.828319 -2.344499 29.509392 -32.953959 -44.800003 -50.467055 -88.680027 -50.481122 0.000000 0.000000 0.000000 4.842819 0.239731 -0.121505 -0.149917 2.267031 12.022523 -0.362939 2.084320 2.974230 -7.095743 35.308369 48.090406 179.659110 64.113893 178.978919 0.000000 0.000000 0.000000 
-0.169261 35.800312 -1.615488 0.000000 0.000000 0.000000 -84.067505 -7.663569 -1.289736 9.091943 20.249643 18.485046 -1.040771 3.637355 2.327146 13.279328 30.477868 -31.037537 -3.875927 -0.484976 0.771901 0.000000 0.000000 0.000000 -85.843914 -3.826354 1.045809 14.605477 -20.165544 -10.543448 -3.416188 -1.876488 -9.818599 20.594941 -35.717381 31.629868 -10.511320 1.217077 -0.899252 0.000000 0.000000 0.000000 -85.345946 -8.168304 -3.464781 2.099522 0.105723 -0.142748 8.400840 1.733240 0.334014 1.140190 0.661897 0.249174 0.000000 0.000000 0.000000 6.134427 1.319270 -0.320255 -7.756885 0.193427 -2.914230 9.850036 0.883985 -6.395389 0.000000 0.000000 0.000000 8.022441 1.022785 0.496699 0.260690 2.977193 -6.374640 0.882689 0.255247 -2.838674 28.464523 -35.115379 -41.771972 -43.098531 -88.817663 -42.951651 0.000000 0.000000 0.000000 6.779006 1.357903 -0.246118 -0.322141 2.983832 12.296744 -0.613446 2.115142 3.024131 -13.165828 32.933089 50.751772 179.324882 60.369173 179.434930 0.000000 0.000000 0.000000 
